<?xml version="1.0" standalone="no"?><svg xmlns="http://www.w3.org/2000/svg" viewBox="0 0 1440 320"><path fill="#f3f4f5" fill-opacity="1" d="M0,288L34.3,277.3C68.6,267,137,245,206,213.3C274.3,181,343,139,411,117.3C480,96,549,96,617,112C685.7,128,754,160,823,181.3C891.4,203,960,213,1029,197.3C1097.1,181,1166,139,1234,106.7C1302.9,75,1371,53,1406,42.7L1440,32L1440,0L1405.7,0C1371.4,0,1303,0,1234,0C1165.7,0,1097,0,1029,0C960,0,891,0,823,0C754.3,0,686,0,617,0C548.6,0,480,0,411,0C342.9,0,274,0,206,0C137.1,0,69,0,34,0L0,0Z"></path></svg>