<?xml version="1.0" standalone="no"?><svg xmlns="http://www.w3.org/2000/svg" viewBox="0 0 1440 320"><path fill="#f3f4f5" fill-opacity="1" d="M0,288L34.3,277.3C68.6,267,137,245,206,213.3C274.3,181,343,139,411,117.3C480,96,549,96,617,112C685.7,128,754,160,823,181.3C891.4,203,960,213,1029,197.3C1097.1,181,1166,139,1234,106.7C1302.9,75,1371,53,1406,42.7L1440,32L1440,320L1405.7,320C1371.4,320,1303,320,1234,320C1165.7,320,1097,320,1029,320C960,320,891,320,823,320C754.3,320,686,320,617,320C548.6,320,480,320,411,320C342.9,320,274,320,206,320C137.1,320,69,320,34,320L0,320Z"></path></svg>